<svg xmlns="http://www.w3.org/2000/svg" viewBox="0 0 257.48 257.54"><defs><style>.cls-1{fill:#fff;}</style></defs><g id="Layer_2" data-name="Layer 2"><g id="Layer_1-2" data-name="Layer 1"><path class="cls-1" d="M127.31,257.54C57.25,257.57,0,199.82,0,129.1,0,56.44,56.45,0,129.14,0c71.05,0,128.37,58,128.34,129.82C257.45,200.4,199.24,257.51,127.31,257.54ZM227.91,89.06a1.43,1.43,0,0,0,.82-1.81C214.75,47.89,172.8,19.4,128.31,19,84.86,18.67,42,47.55,27.26,87a1.43,1.43,0,0,0,.83,1.83l65,25.84a1.44,1.44,0,0,0,1.8-.67c7.13-13.38,17.87-21,33.31-20.9s25.85,8.33,32.91,21.14a1.43,1.43,0,0,0,1.79.65Zm-.89,81.3-64.17-25.45a1.44,1.44,0,0,0-1.8.68c-14.77,27.64-51.06,27.91-66.37.27a1.45,1.45,0,0,0-1.79-.66l-63.5,25.15h0a1.42,1.42,0,0,0-.78,1.74c11,33.54,54.39,63.68,92.75,65.67,46.48,2.4,89.55-25.64,106.47-65.52A1.43,1.43,0,0,0,227,170.36ZM19,129.89c0,8,4.93,13.4,12.21,13.45,7.63,0,13.27-5.64,13.28-13.4s-5.57-13.54-12.82-13.55S19,122.06,19,129.89Zm217.7.05c0-7.88-5.44-13.81-12.55-13.73a13,13,0,0,0-12.8,13.23c0,7.5,5.83,13.78,12.75,13.76C231.35,143.17,236.71,137.53,236.69,129.94ZM69.74,129.8c0-5.62-4-10-9.3-10.06a10,10,0,0,0-9.95,9.9c0,5.63,4,9.9,9.36,10A9.59,9.59,0,0,0,69.74,129.8Zm125.73-10.25c-5.53,0-9.25,3.78-9.26,9.43,0,5.87,4,10.69,9.06,10.77a10,10,0,0,0,9.87-10C205.17,124.24,200.73,119.57,195.47,119.55ZM76.56,129.46c-.08,4.71,3,8.35,7.25,8.42s7.08-3.32,7.14-8.07c0-4.55-2.82-8-6.77-8A7.44,7.44,0,0,0,76.56,129.46Zm88-.35c-.08,4.52,3.22,8.36,7.31,8.51s7.11-3.16,7.22-7.63c.1-4.62-2.9-8.26-6.89-8.36C167.71,121.52,164.67,124.49,164.6,129.11Z"/></g></g></svg>